HIERARCHY
ROOT hip
{
  OFFSET 0 0 0
  CHANNELS 6 Xposition Yposition Zposition Zrotation Yrotation Xrotation
  JOINT abdomen
  {
    OFFSET 0 20.6881 -0.73152
    CHANNELS 3 Zrotation Xrotation Yrotation
    JOINT chest
    {
      OFFSET 0 11.7043 -0.48768
      CHANNELS 3 Zrotation Xrotation Yrotation
      JOINT neck
      {
        OFFSET 0 22.1894 -2.19456
        CHANNELS 3 Zrotation Xrotation Yrotation
        JOINT head
        {
          OFFSET -0.24384 7.07133 1.2192
          CHANNELS 3 Zrotation Xrotation Yrotation
          JOINT leftEye
          {
            OFFSET 4.14528 8.04674 8.04672
            CHANNELS 3 Zrotation Xrotation Yrotation
            End Site
            {
              OFFSET 1 0 0
            }
          }
          JOINT rightEye
          {
            OFFSET -3.6576 8.04674 8.04672
            CHANNELS 3 Zrotation Xrotation Yrotation
            End Site
            {
              OFFSET 1 0 0
            }
          }
        }
      }
      JOINT rCollar
      {
        OFFSET -2.68224 19.2634 -4.8768
        CHANNELS 3 Zrotation Xrotation Yrotation
        JOINT rShldr
        {
          OFFSET -8.77824 -1.95073 1.46304
          CHANNELS 3 Zrotation Xrotation Yrotation
          JOINT rForeArm
          {
            OFFSET -28.1742 -1.7115 0.48768
            CHANNELS 3 Zrotation Xrotation Yrotation
            JOINT rHand
            {
              OFFSET -22.5879 0.773209 7.07136
              CHANNELS 3 Zrotation Xrotation Yrotation
              JOINT rThumb1
              {
                OFFSET -1.2192 -0.487915 3.41376
                CHANNELS 3 Zrotation Xrotation Yrotation
                JOINT rThumb2
                {
                  OFFSET -3.37035 -0.52449 3.41376
                  CHANNELS 3 Zrotation Xrotation Yrotation
                  End Site
                  {
                    OFFSET -1.78271 -1.18214 1.43049
                  }
                }
              }
              JOINT rIndex1
              {
                OFFSET -7.75947 0.938293 5.60832
                CHANNELS 3 Zrotation Xrotation Yrotation
                JOINT rIndex2
                {
                  OFFSET -2.54057 -0.884171 1.56538
                  CHANNELS 3 Zrotation Xrotation Yrotation
                  End Site
                  {
                    OFFSET -1.62519 -0.234802 1.16502
                  }
                }
              }
              JOINT rMid1
              {
                OFFSET -8.24714 1.18213 3.41376
                CHANNELS 3 Zrotation Xrotation Yrotation
                JOINT rMid2
                {
                  OFFSET -3.10165 -0.590103 1.0647
                  CHANNELS 3 Zrotation Xrotation Yrotation
                  End Site
                  {
                    OFFSET -2.48547 -0.328903 0.83742
                  }
                }
              }
              JOINT rRing1
              {
                OFFSET -8.82822 0.546677 1.51678
                CHANNELS 3 Zrotation Xrotation Yrotation
                JOINT rRing2
                {
                  OFFSET -2.60934 -0.819778 -0.0198488
                  CHANNELS 3 Zrotation Xrotation Yrotation
                  End Site
                  {
                    OFFSET -2.33842 -0.294052 0.168128
                  }
                }
              }
              JOINT rPinky1
              {
                OFFSET -8.27202 -0.0477905 -0.4584
                CHANNELS 3 Zrotation Xrotation Yrotation
                JOINT rPinky2
                {
                  OFFSET -1.82734 -0.647385 -0.700984
                  CHANNELS 3 Zrotation Xrotation Yrotation
                  End Site
                  {
                    OFFSET -1.69225 -0.51767 -0.607171
                  }
                }
              }
            }
          }
        }
      }
      JOINT lCollar
      {
        OFFSET 2.68224 19.2634 -4.8768
        CHANNELS 3 Zrotation Xrotation Yrotation
        JOINT lShldr
        {
          OFFSET 8.77824 -1.95073 1.46304
          CHANNELS 3 Zrotation Xrotation Yrotation
          JOINT lForeArm
          {
            OFFSET 28.1742 -1.7115 0.48768
            CHANNELS 3 Zrotation Xrotation Yrotation
            JOINT lHand
            {
              OFFSET 22.5879 0.773209 7.07136
              CHANNELS 3 Zrotation Xrotation Yrotation
              JOINT lThumb1
              {
                OFFSET 1.2192 -0.487915 3.41376
                CHANNELS 3 Zrotation Xrotation Yrotation
                JOINT lThumb2
                {
                  OFFSET 3.37035 -0.52449 3.41376
                  CHANNELS 3 Zrotation Xrotation Yrotation
                  End Site
                  {
                    OFFSET 1.78271 -1.18214 1.43049
                  }
                }
              }
              JOINT lIndex1
              {
                OFFSET 7.75947 0.938293 5.60832
                CHANNELS 3 Zrotation Xrotation Yrotation
                JOINT lIndex2
                {
                  OFFSET 2.54057 -0.884171 1.56538
                  CHANNELS 3 Zrotation Xrotation Yrotation
                  End Site
                  {
                    OFFSET 1.62519 -0.234802 1.16502
                  }
                }
              }
              JOINT lMid1
              {
                OFFSET 8.24714 1.18213 3.41376
                CHANNELS 3 Zrotation Xrotation Yrotation
                JOINT lMid2
                {
                  OFFSET 3.10165 -0.590103 1.0647
                  CHANNELS 3 Zrotation Xrotation Yrotation
                  End Site
                  {
                    OFFSET 2.48547 -0.328903 0.83742
                  }
                }
              }
              JOINT lRing1
              {
                OFFSET 8.82822 0.546677 1.51678
                CHANNELS 3 Zrotation Xrotation Yrotation
                JOINT lRing2
                {
                  OFFSET 2.60934 -0.819778 -0.0198488
                  CHANNELS 3 Zrotation Xrotation Yrotation
                  End Site
                  {
                    OFFSET 2.33842 -0.294052 0.168128
                  }
                }
              }
              JOINT lPinky1
              {
                OFFSET 8.27202 -0.0477905 -0.4584
                CHANNELS 3 Zrotation Xrotation Yrotation
                JOINT lPinky2
                {
                  OFFSET 1.82734 -0.647385 -0.700984
                  CHANNELS 3 Zrotation Xrotation Yrotation
                  End Site
                  {
                    OFFSET 1.69225 -0.51767 -0.607171
                  }
                }
              }
            }
          }
        }
      }
    }
  }
  JOINT rButtock
  {
    OFFSET -8.77824 4.35084 1.2192
    CHANNELS 3 Zrotation Xrotation Yrotation
    JOINT rThigh
    {
      OFFSET 0 -1.70687 -2.19456
      CHANNELS 3 Zrotation Xrotation Yrotation
      JOINT rShin
      {
        OFFSET 0 -36.8199 0.73152
        CHANNELS 3 Zrotation Xrotation Yrotation
        JOINT rFoot
        {
          OFFSET 0.73152 -45.1104 -5.12064
          CHANNELS 3 Zrotation Xrotation Yrotation
          End Site
          {
            OFFSET -1.1221 -3.69964 12.103
          }
        }
      }
    }
  }
  JOINT lButtock
  {
    OFFSET 8.77824 4.35084 1.2192
    CHANNELS 3 Zrotation Xrotation Yrotation
    JOINT lThigh
    {
      OFFSET 0 -1.70687 -2.19456
      CHANNELS 3 Zrotation Xrotation Yrotation
      JOINT lShin
      {
        OFFSET 0 -36.8199 0.73152
        CHANNELS 3 Zrotation Xrotation Yrotation
        JOINT lFoot
        {
          OFFSET -0.73152 -45.1104 -5.12064
          CHANNELS 3 Zrotation Xrotation Yrotation
          End Site
          {
            OFFSET 1.1221 -3.69964 12.103
          }
        }
      }
    }
  }
}
MOTION
Frames:	7
Frame Time:	0.00833333
222.441 81.6849 21.2768 0.0 0.0 0.0 0.56901 -0.00295247 0.0162652 0.157041 -0.00456254 0.0272097 -2.92692e-15 -7.95139e-16 -7.45443e-17 -8.94842e-15 3.18055e-15 -2.20527e-16 -0.0 0.0 0.0 -0.0 0.0 0.0 -1.29341e-15 1.06769e-17 1.98785e-16 -3.02591e-14 3.54085e-16 -3.97569e-16 -5.39551e-13 1.7016e-13 -1.59028e-14 -6.2014e-12 -1.2352e-13 -1.74931e-13 -1.46263e-11 1.01035e-13 -3.84847e-13 -2.52715e-11 1.68569e-13 -6.55194e-13 -1.4623e-11 1.00585e-13 -3.97569e-13 7.73091 5.47488 0.417314 -1.46276e-11 1.00684e-13 -3.78486e-13 2.90554 0.965183 0.102902 -1.46289e-11 1.00784e-13 -3.80076e-13 10.2786 0.731801 0.0259123 -1.46331e-11 1.05356e-13 -3.72125e-13 2.22167 -0.733487 -0.20892 -1.48967e-15 1.06769e-17 -2.98177e-16 -3.21779e-14 3.47873e-16 -1.39149e-15 -5.42483e-13 -1.53263e-13 -9.54166e-15 -6.19843e-12 2.07506e-13 -1.49486e-13 -1.4622e-11 1.14836e-13 -3.72125e-13 -2.52385e-11 1.97194e-13 -6.41677e-13 -1.4629e-11 1.15693e-13 -3.62583e-13 -7.73091 5.47488 -0.417314 -1.46207e-11 1.145e-13 -3.72125e-13 -2.90554 0.965183 -0.102902 -1.46288e-11 1.15096e-13 -3.73715e-13 -10.2786 0.731801 -0.0259123 -1.46172e-11 1.15693e-13 -3.84847e-13 -2.22167 -0.733487 0.20892 -2.03217e-16 0.0 -3.88251e-19 0.928541 -4.52917 -0.0776702 -0.00199908 2.65216 -0.00873547 -0.500788 1.87722 0.0953248 2.03217e-16 0.0 3.88251e-19 -0.062382 -2.33914 0.0221492 0.00810071 -1.31476 0.0693785 0.493066 3.65401 -0.130509
216.473 79.9569 16.3617 39.2678 -88.5573 -41.867 -0.0692628 3.51555 -0.0730719 -0.146706 -0.952913 -0.0439081 1.00223 5.11955 0.387331 -1.40706 -9.40818 0.408937 -0.0 0.0 0.0 -0.0 0.0 0.0 -1.0803e-15 -5.00219e-13 -7.05919e-15 21.7984 5.57655 -0.669996 -2.14517 -0.756169 3.55073 0.101808 7.1135 0.97251 1.10855e-10 9.11957e-11 -1.46419e-10 1.88134e-10 1.57164e-10 -2.55535e-10 1.10857e-10 9.11939e-11 -1.46429e-10 7.73091 5.47488 0.417314 1.10854e-10 9.11945e-11 -1.46415e-10 2.90554 0.965183 0.102902 1.10854e-10 9.11945e-11 -1.46415e-10 10.2786 0.731801 0.0259123 1.10848e-10 9.11985e-11 -1.46408e-10 2.22167 -0.733487 -0.20892 -1.25549e-15 -5.00221e-13 -7.44627e-15 -22.4566 10.7921 0.222698 8.53627 -5.42427 -11.2409 0.000188147 -0.214752 0.0301907 -1.35339e-11 -3.96838e-11 -6.09295e-11 -2.29234e-11 -6.85972e-11 -1.05408e-10 -1.35389e-11 -3.96828e-11 -6.09217e-11 -7.73091 5.47488 -0.417314 -1.35333e-11 -3.96842e-11 -6.09296e-11 -2.90554 0.965183 -0.102902 -1.35397e-11 -3.96827e-11 -6.09296e-11 -10.2786 0.731801 -0.0259123 -1.35291e-11 -3.96819e-11 -6.09388e-11 -2.22167 -0.733487 0.20892 -2.03217e-16 0.0 -3.88251e-19 1.03092 -12.6891 -0.122798 -0.00328909 17.4068 0.199135 -0.541283 -0.92682 -0.385486 2.03217e-16 0.0 3.88251e-19 -1.55791 -3.8257 -0.0691879 -0.0271652 7.76198 -0.0959467 0.264798 -3.54732 -1.39103
215.996 80.2354 16.3822 31.8183 -88.6549 -33.8413 -0.750716 7.23785 -0.14942 -0.478676 -1.95338 -0.11499 1.98621 10.529 0.804407 -2.72888 -19.3061 0.87993 -0.0 0.0 0.0 -0.0 0.0 0.0 -8.17752e-16 -1.20711e-12 -1.68284e-14 45.0018 11.532 -1.37354 -4.32877 -1.55393 7.33597 -0.0610376 14.555 2.04198 2.56577e-10 1.97101e-10 -3.15859e-10 4.35927e-10 3.39687e-10 -5.51301e-10 2.56578e-10 1.97098e-10 -3.15866e-10 7.73091 5.47488 0.417314 2.56576e-10 1.97099e-10 -3.15856e-10 2.90554 0.965183 0.102902 2.56579e-10 1.97099e-10 -3.15855e-10 10.2786 0.731801 0.0259123 2.5657e-10 1.97102e-10 -3.15849e-10 2.22167 -0.733487 -0.20892 -9.71353e-16 -1.20711e-12 -1.70986e-14 -46.2977 22.1814 0.497067 15.2259 -10.3997 -23.3782 0.000812706 -0.39883 0.0560787 -1.25446e-11 -8.53602e-11 -1.28943e-10 -2.07141e-11 -1.47556e-10 -2.23084e-10 -1.25474e-11 -8.5359e-11 -1.28937e-10 -7.73091 5.47488 -0.417314 -1.25448e-11 -8.53607e-11 -1.28943e-10 -2.90554 0.965183 -0.102902 -1.25493e-11 -8.53583e-11 -1.28941e-10 -10.2786 0.731801 -0.0259123 -1.25398e-11 -8.53572e-11 -1.28949e-10 -2.22167 -0.733487 0.20892 -2.03217e-16 0.0 -3.88251e-19 1.11751 -21.2703 -0.168198 -0.143048 33.1553 0.480272 -0.634395 -3.86796 -0.888551 2.03217e-16 0.0 3.88251e-19 -3.16234 -5.42459 -0.165183 -0.00540397 17.4272 -0.283 -0.317559 -11.1965 -2.73084
215.479 80.4448 16.349 19.0703 -88.9119 -20.4507 -1.31243 10.5525 -0.255657 -0.761268 -2.8496 -0.186356 2.7925 15.3558 1.20021 -3.77217 -28.2184 1.37358 -0.0 0.0 0.0 -0.0 0.0 0.0 -6.54086e-16 -1.50068e-12 -2.15751e-14 65.801 16.7203 -2.08883 -6.15597 -2.23369 10.6595 -0.463897 21.315 3.10785 3.61817e-10 2.73385e-10 -4.38488e-10 6.14946e-10 4.71155e-10 -7.65296e-10 3.61818e-10 2.73381e-10 -4.38493e-10 7.73091 5.47488 0.417314 3.61816e-10 2.73382e-10 -4.38488e-10 2.90554 0.965183 0.102902 3.61821e-10 2.73382e-10 -4.38486e-10 10.2786 0.731801 0.0259123 3.6181e-10 2.73385e-10 -4.38481e-10 2.22167 -0.733487 -0.20892 -7.87128e-16 -1.50068e-12 -2.17425e-14 -67.6609 32.3743 0.777064 19.4836 -13.7619 -34.7011 0.00124343 -0.644255 0.0905771 -1.13578e-11 -1.19281e-10 -1.82044e-10 -1.82933e-11 -2.06186e-10 -3.14939e-10 -1.13587e-11 -1.1928e-10 -1.8204e-10 -7.73091 5.47488 -0.417314 -1.13586e-11 -1.19281e-10 -1.82044e-10 -2.90554 0.965183 -0.102902 -1.13614e-11 -1.19278e-10 -1.82041e-10 -10.2786 0.731801 -0.0259123 -1.1353e-11 -1.19277e-10 -1.82047e-10 -2.22167 -0.733487 0.20892 -2.03217e-16 0.0 -3.88251e-19 1.1909 -29.0087 -0.233884 -0.454482 46.9131 0.860056 -0.764084 -6.53316 -1.35566 2.03217e-16 0.0 3.88251e-19 -4.56328 -6.79875 -0.253143 0.0725964 25.9147 -0.471317 -1.18082 -17.91 -4.1038
214.919 80.6487 16.3018 -1.4516 -89.1045 0.691 -1.58703 12.8478 -0.434849 -0.916118 -3.48524 -0.258257 3.30535 18.7287 1.50722 -4.44502 -34.6723 1.79032 -0.0 0.0 0.0 -0.0 0.0 0.0 -7.37624e-16 -7.60953e-13 -1.37658e-14 80.3144 19.9979 -2.76094 -7.29701 -2.65373 12.8212 -0.938132 26.3931 3.99929 3.65854e-10 2.75617e-10 -4.44094e-10 6.2203e-10 4.74981e-10 -7.74866e-10 3.65855e-10 2.75612e-10 -4.44098e-10 7.73091 5.47488 0.417314 3.65854e-10 2.75614e-10 -4.44094e-10 2.90554 0.965183 0.102902 3.6586e-10 2.75613e-10 -4.44093e-10 10.2786 0.731801 0.0259123 3.65848e-10 2.75616e-10 -4.44088e-10 2.22167 -0.733487 -0.20892 -8.5268e-16 -7.60957e-13 -1.38652e-14 -82.589 39.5784 0.958134 21.7418 -15.3743 -43.0973 0.0013345 -1.04305 0.146607 -9.67723e-12 -1.23813e-10 -1.97865e-10 -1.53438e-11 -2.13994e-10 -3.42244e-10 -9.67684e-12 -1.23811e-10 -1.97862e-10 -7.73091 5.47488 -0.417314 -9.67823e-12 -1.23813e-10 -1.97865e-10 -2.90554 0.965183 -0.102902 -9.68008e-12 -1.23809e-10 -1.97862e-10 -10.2786 0.731801 -0.0259123 -9.67207e-12 -1.23808e-10 -1.97865e-10 -2.22167 -0.733487 0.20892 -2.03217e-16 0.0 -3.88251e-19 1.2499 -34.6401 -0.339718 -0.830984 55.6971 1.25336 -0.890302 -8.51013 -1.72426 2.03217e-16 0.0 3.88251e-19 -5.44519 -7.61116 -0.319875 0.161785 31.4589 -0.615777 -2.07233 -22.3176 -5.37219
214.372 80.8659 16.2877 -12.4251 -89.0153 12.2855 -1.42695 13.6942 -0.742218 -0.884306 -3.76022 -0.336524 3.46303 20.0715 1.65954 -4.79348 -37.6916 1.97484 -0.0 0.0 0.0 -0.0 0.0 0.0 -1.28829e-15 1.99752e-12 1.82109e-14 85.86 20.7183 -3.31308 -7.54377 -2.72382 13.3139 -1.22965 28.9232 4.48251 1.71292e-10 1.36175e-10 -2.39157e-10 2.91517e-10 2.34481e-10 -4.15976e-10 1.71294e-10 1.36169e-10 -2.39161e-10 7.73091 5.47488 0.417314 1.71293e-10 1.3617e-10 -2.39157e-10 2.90554 0.965183 0.102902 1.71299e-10 1.3617e-10 -2.39157e-10 10.2786 0.731801 0.0259123 1.71285e-10 1.36173e-10 -2.39152e-10 2.22167 -0.733487 -0.20892 -1.38915e-15 1.99752e-12 1.81352e-14 -88.4223 42.56 0.95496 22.7176 -16.1369 -47.1524 0.00206792 -1.74723 0.245561 -5.96302e-12 -7.62202e-11 -1.42565e-10 -9.46363e-12 -1.31674e-10 -2.46432e-10 -5.9623e-12 -7.62181e-11 -1.42562e-10 -7.73091 5.47488 -0.417314 -5.96367e-12 -7.62196e-11 -1.42564e-10 -2.90554 0.965183 -0.102902 -5.96529e-12 -7.62168e-11 -1.42561e-10 -10.2786 0.731801 -0.0259123 -5.95704e-12 -7.62162e-11 -1.42563e-10 -2.22167 -0.733487 0.20892 -2.03217e-16 0.0 -3.88251e-19 1.32281 -37.3519 -0.529659 -0.947842 57.5054 1.36418 -0.988314 -9.66832 -2.00675 2.03217e-16 0.0 3.88251e-19 -5.57151 -7.67858 -0.368807 0.196214 32.903 -0.659371 -2.65682 -23.5016 -6.35789
213.808 81.0691 16.2638 -18.844 -88.7589 19.248 -0.967898 13.5063 -1.13739 -0.718672 -3.7774 -0.419005 3.3875 19.9647 1.6929 -4.97101 -38.2591 1.94935 -0.0 0.0 0.0 -0.0 0.0 0.0 -2.16686e-15 6.17072e-12 6.71364e-14 84.9446 19.6092 -3.75726 -7.16562 -2.5488 12.6155 -1.30255 29.65 4.62328 -1.62417e-10 -1.02654e-10 1.13944e-10 -2.75523e-10 -1.77411e-10 2.02181e-10 -1.62413e-10 -1.02661e-10 1.13938e-10 7.73091 5.47488 0.417314 -1.62414e-10 -1.0266e-10 1.13945e-10 2.90554 0.965183 0.102902 -1.6241e-10 -1.0266e-10 1.13943e-10 10.2786 0.731801 0.0259123 -1.62424e-10 -1.02657e-10 1.13947e-10 2.22167 -0.733487 -0.20892 -2.25622e-15 6.17071e-12 6.70526e-14 -87.7246 42.5275 0.790444 23.0714 -16.7819 -48.0712 0.00614558 -2.66521 0.374718 -8.60141e-13 8.08097e-12 -3.7365e-11 -1.59445e-12 1.41187e-11 -6.42386e-11 -8.59744e-13 8.08355e-12 -3.7362e-11 -7.73091 5.47488 -0.417314 -8.60026e-13 8.08274e-12 -3.73634e-11 -2.90554 0.965183 -0.102902 -8.61988e-13 8.08431e-12 -3.73607e-11 -10.2786 0.731801 -0.0259123 -8.52973e-13 8.08405e-12 -3.73624e-11 -2.22167 -0.733487 0.20892 -2.03217e-16 0.0 -3.88251e-19 1.41258 -37.9765 -0.772306 -0.788043 54.3328 1.18914 -1.05564 -10.2351 -2.22284 2.03217e-16 0.0 3.88251e-19 -5.15784 -7.21192 -0.404227 0.17624 31.4176 -0.620772 -2.88881 -22.396 -7.07779
